<svg xmlns="http://www.w3.org/2000/svg" viewBox="0 0 500 300">
  <!-- Ícone Status Pendente -->
  <g id="status-pendente" transform="translate(50, 50)">
    <circle cx="50" cy="50" r="40" fill="#FFAD0F" opacity="0.2"/>
    <circle cx="50" cy="50" r="30" fill="none" stroke="#FFAD0F" stroke-width="4"/>
    <path d="M50 30 L50 50 L65 60" stroke="#FFAD0F" stroke-width="4" stroke-linecap="round" stroke-linejoin="round" fill="none"/>
  </g>

  <!-- Ícone Status Aceito -->
  <g id="status-aceito" transform="translate(150, 50)">
    <circle cx="50" cy="50" r="40" fill="#3E7BFA" opacity="0.2"/>
    <circle cx="50" cy="50" r="30" fill="none" stroke="#3E7BFA" stroke-width="4"/>
    <path d="M35 50 L45 60 L65 40" stroke="#3E7BFA" stroke-width="4" stroke-linecap="round" stroke-linejoin="round" fill="none"/>
  </g>

  <!-- Ícone Status Concluído -->
  <g id="status-concluido" transform="translate(250, 50)">
    <circle cx="50" cy="50" r="40" fill="#00C566" opacity="0.2"/>
    <path d="M30 50 L45 65 L70 35" stroke="#00C566" stroke-width="5" stroke-linecap="round" stroke-linejoin="round" fill="none"/>
  </g>

  <!-- Ícone Status Cancelado -->
  <g id="status-cancelado" transform="translate(350, 50)">
    <circle cx="50" cy="50" r="40" fill="#FF4747" opacity="0.2"/>
    <path d="M35 35 L65 65 M65 35 L35 65" stroke="#FF4747" stroke-width="5" stroke-linecap="round"/>
  </g>

  <!-- Ícone Status Em Progresso -->
  <g id="status-em-progresso" transform="translate(50, 150)">
    <circle cx="50" cy="50" r="40" fill="#3E7BFA" opacity="0.2"/>
    <path d="M30 50 C30 40, 70 40, 70 50 C70 60, 30 60, 30 50" stroke="#3E7BFA" stroke-width="4" fill="none"/>
    <circle cx="35" cy="50" r="5" fill="#3E7BFA"/>
    <circle cx="50" cy="50" r="5" fill="#3E7BFA"/>
    <circle cx="65" cy="50" r="5" fill="#3E7BFA"/>
  </g>

  <!-- Ícone Pagamento Pendente -->
  <g id="pagamento-pendente" transform="translate(150, 150)">
    <circle cx="50" cy="50" r="40" fill="#FFAD0F" opacity="0.2"/>
    <rect x="30" y="35" width="40" height="30" rx="4" fill="none" stroke="#FFAD0F" stroke-width="3"/>
    <path d="M30 45 L70 45" stroke="#FFAD0F" stroke-width="3"/>
    <circle cx="50" cy="55" r="5" fill="#FFAD0F"/>
  </g>

  <!-- Ícone Pago -->
  <g id="status-pago" transform="translate(250, 150)">
    <circle cx="50" cy="50" r="40" fill="#00C566" opacity="0.2"/>
    <rect x="30" y="35" width="40" height="30" rx="4" fill="none" stroke="#00C566" stroke-width="3"/>
    <path d="M30 45 L70 45" stroke="#00C566" stroke-width="3"/>
    <path d="M45 55 L55 55" stroke="#00C566" stroke-width="3"/>
    <path d="M35 65 L45 65 L45 55 L35 55 Z" fill="#00C566"/>
    <path d="M55 65 L65 65 L65 55 L55 55 Z" fill="#00C566"/>
  </g>

  <!-- Ícone Verificado -->
  <g id="status-verificado" transform="translate(350, 150)">
    <circle cx="50" cy="50" r="40" fill="#00C566" opacity="0.2"/>
    <circle cx="50" cy="50" r="30" fill="none" stroke="#00C566" stroke-width="3"/>
    <path d="M35 50 L45 60 L65 40" stroke="#00C566" stroke-width="4" stroke-linecap="round" stroke-linejoin="round" fill="none"/>
  </g>
</svg>
